<svg xmlns="http://www.w3.org/2000/svg" width="128" height="128" viewBox="0 0 128 128"><defs><linearGradient id="stone" x2="0" y2="1"><stop stop-color="#c9c5a7"/><stop offset="1" stop-color="#686c5a"/></linearGradient><linearGradient id="grass" x2="0" y2="1"><stop stop-color="#73935c"/><stop offset="1" stop-color="#647f50"/></linearGradient><linearGradient id="gold" x2="0" y2="1"><stop stop-color="#ffe39b"/><stop offset="1" stop-color="#b77c32"/></linearGradient><linearGradient id="violet" x2="0" y2="1"><stop stop-color="#ed9a95"/><stop offset="1" stop-color="#6d344f"/></linearGradient><filter id="shadow" x="-50%" y="-50%" width="200%" height="200%"><feGaussianBlur stdDeviation="4"/></filter></defs><ellipse cx="64" cy="108" rx="34" ry="10" fill="#140f12" opacity=".5"/><path d="M33 89q-8-39 19-52l10-18 12 18q29 12 21 52l-14 12H48z" fill="#6b7959" stroke="#344034" stroke-width="5"/><path d="M38 58 25 40l24 6m40 12 14-19-24 8" fill="#a49a74" stroke="#344034" stroke-width="4"/><path d="m44 75 20-12 20 12-20 15z" fill="#87936b" stroke="#48543e" stroke-width="3"/><circle cx="54" cy="57" r="4" fill="#f0ca72"/><circle cx="74" cy="57" r="4" fill="#f0ca72"/></svg>