<svg xmlns="http://www.w3.org/2000/svg" width="128" height="128" viewBox="0 0 128 128"><defs><linearGradient id="stone" x2="0" y2="1"><stop stop-color="#c9c5a7"/><stop offset="1" stop-color="#686c5a"/></linearGradient><linearGradient id="grass" x2="0" y2="1"><stop stop-color="#73935c"/><stop offset="1" stop-color="#647f50"/></linearGradient><linearGradient id="gold" x2="0" y2="1"><stop stop-color="#ffe39b"/><stop offset="1" stop-color="#b77c32"/></linearGradient><linearGradient id="violet" x2="0" y2="1"><stop stop-color="#ed9a95"/><stop offset="1" stop-color="#6d344f"/></linearGradient><filter id="shadow" x="-50%" y="-50%" width="200%" height="200%"><feGaussianBlur stdDeviation="4"/></filter></defs><ellipse cx="64" cy="105" rx="25" ry="8" fill="#140f12" opacity=".48"/><path d="M45 92q-10-22 5-39 6-17 17-24 12 13 16 27 13 22-1 36z" fill="#bd5748" stroke="#482e2c" stroke-width="4"/><path d="m49 53-16-20 26 13m21 4 15-18-21 12" fill="#e49a64" stroke="#482e2c" stroke-width="4"/><path d="m52 76 12-8 12 8-12 9z" fill="#f1c278"/><circle cx="56" cy="61" r="3" fill="#fff0a4"/><circle cx="73" cy="61" r="3" fill="#fff0a4"/></svg>